#!OML:ASF F:\VICON\USERDATA\INSTALL\rory3\rory3.ASF
:FULLY-SPECIFIED
:DEGREES
3288
root -5.85026 15.6994 2.38798 20.8606 -25.5604 -4.8685
lowerback 19.2076 7.57198 -0.500536
upperback 2.85851 9.73358 0.00692167
thorax -7.61672 4.65813 -2.16771
lowerneck -23.2675 -7.1333 -8.41129
upperneck 15.3037 -10.7315 16.9667
head 10.2227 -3.64561 5.69922
rclavicle 3.77691e-014 -3.57812e-014
rhumerus 50.9627 6.23932 -44.4464
rradius 38.9791
rwrist 20.5253
rhand -15.1545 8.2887
rfingers 7.12502
rthumb 11.0158 -21.4023
lclavicle 3.77691e-014 -3.57812e-014
lhumerus -19.9975 -35.9128 100.047
lradius 114
lwrist 10.3873
lhand -7.88212 4.8757
lfingers 7.12502
lthumb 18.0223 34.0607
rfemur -2.91272 -21.014 7.1067
rtibia 44.9025
rfoot -4.87687 9.7969
rtoes -20.6247
lfemur -68.0826 1.8707 -18.2892
ltibia 49.1301
lfoot 3.63754 -10.072
ltoes -8.50854
3289
root -5.84309 15.738 2.38633 21.0518 -24.4129 -4.77964
lowerback 18.4613 7.14667 -0.24364
upperback 2.69638 9.25332 0.0121347
thorax -7.36162 4.43628 -2.096
lowerneck -22.0456 -7.14462 -7.98659
upperneck 14.1505 -10.943 17.7335
head 9.67143 -3.74843 5.84677
rclavicle 2.98177e-014 7.95139e-015
rhumerus 48.3624 8.08201 -46.6688
rradius 45.1909
rwrist 15.0967
rhand -16.8257 8.88891
rfingers 7.12502
rthumb 9.4035 -20.8813
lclavicle 2.98177e-014 7.95139e-015
lhumerus -21.6242 -35.6068 99.8131
lradius 115.48
lwrist 8.84163
lhand -8.31746 4.96024
lfingers 7.12502
lthumb 17.6034 34.1833
rfemur -2.28745 -21.0913 7.88121
rtibia 43.4258
rfoot -6.05857 9.15698
rtoes -20.5176
lfemur -68.013 1.94847 -19.107
ltibia 47.9806
lfoot 4.6293 -11.0332
ltoes -7.26475
3290
root -5.83148 15.7848 2.38898 21.0193 -23.7951 -4.9741
lowerback 18.1159 6.7155 0.0146005
upperback 2.65337 8.76018 0.15841
thorax -7.21722 4.20133 -1.92358
lowerneck -21.5432 -7.01815 -7.68367
upperneck 13.8057 -10.8286 17.7347
head 9.42949 -3.72017 5.80962
rclavicle 7.35503e-014 -1.03368e-014
rhumerus 46.1707 10.3133 -49.95
rradius 50.6533
rwrist 7.85523
rhand -15.7257 10.9705
rfingers 7.12502
rthumb 10.4647 -18.749
lclavicle 7.35503e-014 -1.03368e-014
lhumerus -23.0367 -34.4572 99.2891
lradius 117.134
lwrist 8.50259
lhand -8.44838 5.20656
lfingers 7.12502
lthumb 17.4774 34.4409
rfemur -1.4439 -20.453 8.67054
rtibia 41.8142
rfoot -7.06848 8.20262
rtoes -20.2122
lfemur -67.5197 2.24905 -19.5428
ltibia 46.9734
lfoot 5.48483 -11.6076
ltoes -6.24319
3291
root -5.81574 15.8406 2.39267 20.8012 -23.7727 -5.45158
lowerback 18.2761 6.28544 0.530457
upperback 2.62022 8.30598 0.259669
thorax -7.29059 3.96806 -2.01034
lowerneck -21.7508 -6.76441 -7.42734
upperneck 14.2169 -10.4558 17.0293
head 9.48472 -3.57536 5.58236
rclavicle -3.85642e-014 -1.98785e-015
rhumerus 43.0358 12.5822 -54.4016
rradius 56.0748
rwrist 3.62323
rhand -13.9391 13.1254
rfingers 7.12502
rthumb 12.1879 -16.4995
lclavicle -3.85642e-014 -1.98785e-015
lhumerus -24.3409 -32.7896 98.435
lradius 118.782
lwrist 9.14082
lhand -8.64321 5.52551
lfingers 7.12502
lthumb 17.2899 34.7764
rfemur -0.370239 -19.1083 9.47784
rtibia 40.0888
rfoot -7.92088 6.98527
rtoes -18.3926
lfemur -66.6488 2.75527 -19.505
ltibia 46.1184
lfoot 6.02897 -11.8148
ltoes -5.41893
3292
root -5.79786 15.9062 2.3993 20.6118 -24.3682 -6.00557
lowerback 18.2626 6.06898 0.701408
upperback 2.69806 8.08126 0.608067
thorax -7.23386 3.86033 -1.67613
lowerneck -21.8868 -6.52118 -7.97276
upperneck 14.5408 -9.80912 16.2323
head 9.49586 -3.36888 5.50292
rclavicle -6.08281e-014 2.74323e-014
rhumerus 39.2086 14.6101 -58.8646
rradius 61.127
rwrist 5.48015
rhand -13.3765 14.2964
rfingers 7.12502
rthumb 12.7302 -15.2955
lclavicle -6.08281e-014 2.74323e-014
lhumerus -25.4291 -30.6602 97.9558
lradius 120.283
lwrist 10.0448
lhand -8.77636 5.81947
lfingers 7.12502
lthumb 17.1617 35.0816
rfemur 0.592889 -17.2657 10.1682
rtibia 38.3275
rfoot -8.69016 5.9432
rtoes -14.7675
lfemur -65.6547 3.3721 -19.1538
ltibia 45.3569
lfoot 6.31333 -11.6895
ltoes -4.53434
3293
root -5.77873 15.9849 2.40732 20.5802 -25.5232 -6.51315
lowerback 18.3087 5.98339 0.652639
upperback 2.53785 7.98359 0.818517
thorax -7.47283 3.81136 -1.42153
lowerneck -21.8387 -6.28241 -8.88016
upperneck 15.0276 -9.14672 15.729
head 9.56831 -3.15361 5.59946
rclavicle -2.84262e-014 4.37326e-015
rhumerus 35.8766 16.3574 -63.9749
rradius 64.1848
rwrist 11.9385
rhand -14.016 15.1039
rfingers 7.12502
rthumb 12.1137 -14.5254
lclavicle -2.84262e-014 4.37326e-015
lhumerus -26.6568 -28.3825 97.4341
lradius 121.579
lwrist 10.7413
lhand -8.8609 6.0172
lfingers 7.12502
lthumb 17.0803 35.2864
rfemur 1.147 -15.1561 10.697
rtibia 36.6418
rfoot -9.53342 4.91929
rtoes -12.9985
lfemur -64.6717 4.11637 -18.6982
ltibia 44.5989
lfoot 6.67549 -11.0472
ltoes -3.27204
